<?xml version="1.0" encoding="utf-8"?>
<!-- Generator: Adobe Illustrator 23.0.1, SVG Export Plug-In . SVG Version: 6.00 Build 0)  -->
<svg version="1.1" id="Layer_1" xmlns="http://www.w3.org/2000/svg" xmlns:xlink="http://www.w3.org/1999/xlink" x="0px" y="0px"
	 viewBox="0 0 350 450" style="enable-background:new 0 0 350 450;" xml:space="preserve">
<style type="text/css">
	.st0{fill:#407BFF;}
	.st1{opacity:0.2;enable-background:new    ;}
	.st2{opacity:0.5;fill:#FFFFFF;enable-background:new    ;}
	.st3{opacity:0.2;fill:#FFFFFF;enable-background:new    ;}
	.st4{fill:#263238;}
	.st5{opacity:0.3;fill:#FFFFFF;enable-background:new    ;}
	.st6{opacity:0.6;fill:#FFFFFF;enable-background:new    ;}
	.st7{fill:#E4897B;}
	.st8{opacity:0.1;enable-background:new    ;}
	.st9{fill:#FFFFFF;}
	.st10{fill:#DE5753;}
	.st11{fill:none;stroke:#263238;stroke-width:0.7247;stroke-linecap:round;stroke-linejoin:round;stroke-miterlimit:10;}
	.st12{fill:none;stroke:#263238;stroke-width:0.5;stroke-linecap:round;stroke-linejoin:round;stroke-miterlimit:10;}
	.st13{opacity:0.4;enable-background:new    ;}
	.st14{opacity:0.7;fill:#FFFFFF;enable-background:new    ;}
	.st15{opacity:0.4;fill:#FFFFFF;enable-background:new    ;}
	.st16{fill:none;stroke:#407BFF;stroke-width:0.75;stroke-linecap:round;stroke-linejoin:round;}
	.st17{fill:none;stroke:#407BFF;stroke-width:0.75;stroke-linecap:round;stroke-linejoin:round;stroke-dasharray:6.0301,6.0301;}
	.st18{opacity:0.1;fill:#FFFFFF;enable-background:new    ;}
</style>
<g id="Plant">
	<g>
		<g>
			<path class="st0" d="M320.76,346.4c0.14-1.06,3.31-26.2-3.05-34.88c-1.41-1.93-3.19-2.92-5.28-2.99
				c-12.84-0.34-14.6,11.49-14.62,11.6l1.52,0.27c0.05-0.43,1.58-10.44,13.07-10.12c1.66,0.04,3.02,0.82,4.15,2.36
				c5.93,8.08,2.74,33.23,2.7,33.48L320.76,346.4z"/>
		</g>
		<g>
			<path class="st0" d="M321.53,345.26l1.53-0.05c-0.01-0.23-0.51-23.16,9.34-27.89c9.66-4.64,13.99,4.9,14.18,5.31l1.37-0.79
				c-0.05-0.11-5.15-11.43-16.14-6.14C320.99,320.88,321.5,344.26,321.53,345.26z"/>
		</g>
		<g>
			<path class="st0" d="M321.48,347.06c0-0.36,0.09-36.62,6.25-47.23c5.92-10.18,15.47-5.39,15.87-5.18l0.64-1.6
				c-0.11-0.06-11.13-5.63-17.78,5.81c-6.42,11.04-6.52,46.69-6.52,48.21L321.48,347.06z"/>
		</g>
		<path class="st0" d="M310.58,309.41c0,0,5.61,2.37,3.94,7.97s-19.4,14.81-19.4,14.81s-7.42-7.81-0.61-20.5
			C301.34,298.99,310.43,305.41,310.58,309.41z"/>
		<path class="st0" d="M328.02,297.91c0,0-3.98-0.49-3.66-3.27c0.32-2.78,15.47-9.94,24.42,1.63c0,0-5.73,11.28-14,11.43
			C326.5,307.85,328.02,297.91,328.02,297.91z"/>
		<path class="st0" d="M332.11,316.49c0,0-2.75-2.54,0.22-3.79c2.97-1.24,17.52-0.88,17.67,15.64c0,0-16.94,3.23-19.04-3.07
			C328.86,318.98,332.11,316.49,332.11,316.49z"/>
		<path class="st1" d="M310.58,309.41c0,0,5.61,2.37,3.94,7.97s-19.4,14.81-19.4,14.81s-7.42-7.81-0.61-20.5
			C301.34,298.99,310.43,305.41,310.58,309.41z"/>
		<path class="st1" d="M328.02,297.91c0,0-3.98-0.49-3.66-3.27c0.32-2.78,15.47-9.94,24.42,1.63c0,0-5.73,11.28-14,11.43
			C326.5,307.85,328.02,297.91,328.02,297.91z"/>
		<path class="st1" d="M332.11,316.49c0,0-2.75-2.54,0.22-3.79c2.97-1.24,17.52-0.88,17.67,15.64c0,0-16.94,3.23-19.04-3.07
			C328.86,318.98,332.11,316.49,332.11,316.49z"/>
		<polygon class="st0" points="307.57,380.07 333.87,380.07 336.7,347.06 304.74,347.06 		"/>
		<polygon class="st2" points="307.57,380.07 333.87,380.07 336.7,347.06 304.74,347.06 		"/>
		<rect x="303.33" y="343.41" class="st0" width="34.78" height="7.29"/>
		<rect x="303.33" y="343.41" class="st3" width="34.78" height="7.29"/>
	</g>
</g>
<g id="Chair">
	<g>
		<path class="st4" d="M277.8,356.4l-26.15-2.95v-42.14h-10.36v42.13l-26.26,2.96c-2.6,0.29-4.59,2.81-4.59,5.81v4.51h35.01h1.92
			h35.01v-4.51C282.39,359.21,280.42,356.69,277.8,356.4z"/>
		<path class="st3" d="M277.8,356.4l-26.15-2.95v-42.14h-10.36v42.13l-26.26,2.96c-2.6,0.29-4.59,2.81-4.59,5.81v4.51h35.01h1.92
			h35.01v-4.51C282.39,359.21,280.42,356.69,277.8,356.4z"/>
		<ellipse class="st4" cx="213.21" cy="372.31" rx="6.78" ry="7.77"/>
		<ellipse class="st4" cx="279.64" cy="372.31" rx="6.78" ry="7.77"/>
		<path class="st4" d="M249.68,320.37h-6.43c-2.07,0-3.75-1.93-3.75-4.3v-33.23h13.93v33.23
			C253.44,318.45,251.76,320.37,249.68,320.37z"/>
		<path class="st5" d="M249.68,320.37h-6.43c-2.07,0-3.75-1.93-3.75-4.3v-33.23h13.93v33.23
			C253.44,318.45,251.76,320.37,249.68,320.37z"/>
		<path class="st4" d="M271.25,216.97c0,0,1.98,56.2-11.67,65.87h15.57c0,0,12.07-19.15,8.66-65.87H271.25z"/>
		<path class="st5" d="M271.25,216.97c0,0,1.98,56.2-11.67,65.87h15.57c0,0,12.07-19.15,8.66-65.87H271.25z"/>
		<path class="st4" d="M215.19,274.98h60.74c2.5,0,4.54,2.33,4.54,5.2v6.96h-69.81v-6.96C210.65,277.31,212.68,274.98,215.19,274.98
			z"/>
		<g>
			<path class="st4" d="M209.57,281.06h71.98c1.01,0,1.82,0.94,1.82,2.09v1.89c0,1.16-0.82,2.09-1.82,2.09h-71.98
				c-1.01,0-1.82-0.94-1.82-2.09v-1.89C207.75,282,208.56,281.06,209.57,281.06z"/>
			<path class="st6" d="M209.57,281.06h71.98c1.01,0,1.82,0.94,1.82,2.09v1.89c0,1.16-0.82,2.09-1.82,2.09h-71.98
				c-1.01,0-1.82-0.94-1.82-2.09v-1.89C207.75,282,208.56,281.06,209.57,281.06z"/>
		</g>
		<path class="st4" d="M287.63,228.38h-24.95c-7.31,0-13.23-6.8-13.23-15.17v-11.19c0-8.38,5.93-15.17,13.23-15.17h24.95
			c7.31,0,13.23,6.8,13.23,15.17v11.19C300.87,221.59,294.95,228.38,287.63,228.38z"/>
	</g>
</g>
<g id="Character">
	<g>
		<path class="st7" d="M186.98,140.92L182,125.86c0,0,2.13-2.27,0.67-4.57c-1.46-2.3-10.66-8.77-12.33-7.63
			c-1.68,1.13-5.39,5.42-3.39,7.81c2.01,2.38,10.92,6.35,10.92,6.35l4.4,19.76L186.98,140.92z"/>
		<g>
			<path class="st0" d="M221.77,169.55c0,0-22.66-5.34-25.12-6.62c-2.46-1.28-11.58-31.91-11.58-31.91l-6.99,3.75
				c0,0,5.63,30.74,11.38,38.06c5.75,7.31,30.3,13.5,30.3,13.5L221.77,169.55z"/>
			<path class="st1" d="M219.76,186.32c0,0-0.15-0.03-0.42-0.11c-1.24-0.32-5.11-1.36-9.71-2.91c-7.47-2.49-16.89-6.3-20.18-10.47
				c-5.74-7.32-11.38-38.06-11.38-38.06l6.99-3.75c0,0,9.12,30.64,11.59,31.91c2.46,1.27,25.11,6.61,25.11,6.61L219.76,186.32z"/>
			<polygon class="st0" points="185.18,130.42 186.63,133.61 177.64,137.16 177.99,133.26 			"/>
		</g>
		<path class="st1" d="M219.93,185.89c-1.26-0.21-5.19-0.91-9.88-2.04c2.68-5.3,10.52-8.02,10.52-8.02L219.93,185.89z"/>
		<path class="st4" d="M253.71,148.34c0,0,1.33,14.39-3.32,17.93c-4.65,3.54-27.53-0.6-30.12-6.4c-2.6-5.79,7.17-21.51,7.17-21.51
			L253.71,148.34z"/>
		<polygon class="st7" points="161.15,337.74 167.12,339.39 170.14,329.94 172.89,321.34 166.09,318.02 163.47,328.45 		"/>
		<polygon class="st1" points="163.47,328.45 170.14,329.94 172.89,321.34 166.09,318.02 		"/>
		<g>
			<path class="st0" d="M164.07,323.46l8.28,3.53c0,0,22.08-63.31,26.62-63.53c4.54-0.22,50.74,24.13,62.32,10.63
				c11.58-13.5-5.16-46.04-5.16-46.04s-27.85-4.56-29.95,2.65c-0.41,1.39-0.85,4.13-1.18,6.47c-0.32,2.21-0.54,4.06-0.54,4.06
				s-0.01,0-0.02-0.01c-0.86-0.25-28.82-8.52-39.84,0.01C173.41,249.92,164.07,323.46,164.07,323.46z"/>
			<path class="st6" d="M164.07,323.46l8.28,3.53c0,0,22.08-63.31,26.62-63.53c4.54-0.22,50.74,24.13,62.32,10.63
				c11.58-13.5-5.16-46.04-5.16-46.04s-27.85-4.56-29.95,2.65c-0.41,1.39-0.85,4.13-1.18,6.47c-0.32,2.21-0.54,4.06-0.54,4.06
				s-0.01,0-0.02-0.01c-0.86-0.25-28.82-8.52-39.84,0.01C173.41,249.92,164.07,323.46,164.07,323.46z"/>
		</g>
		<polygon class="st7" points="211.68,364.74 217.63,363 216.49,353.22 215.42,344.24 208.07,345 209.98,355.46 		"/>
		<polygon class="st1" points="210.02,355.66 216.52,353.41 215.44,344.33 208.08,345.05 		"/>
		<polygon class="st0" points="175.77,323.47 163.71,318.78 163.2,324.44 172.34,328.15 		"/>
		<g>
			<path class="st0" d="M241.29,277.34c0,0-1.89,0.05-31.1-1.51c0,0,4.37,41.89,6.75,73.24l-8.74,1.71c0,0-20.87-67.14-20.65-77.81
				c0.23-10.67,10.89-13.79,10.89-13.79S219.25,272.97,241.29,277.34z"/>
			<path class="st6" d="M241.29,277.34c0,0-1.89,0.05-31.1-1.51c0,0,4.37,41.89,6.75,73.24l-8.74,1.71c0,0-20.87-67.14-20.65-77.81
				c0.23-10.67,10.89-13.79,10.89-13.79S219.25,272.97,241.29,277.34z"/>
			<path class="st8" d="M241.29,277.34c0,0-1.89,0.05-31.1-1.51c0,0,4.37,41.89,6.75,73.24l-8.74,1.71c0,0-20.87-67.14-20.65-77.81
				c0.23-10.67,10.89-13.79,10.89-13.79S219.25,272.97,241.29,277.34z"/>
		</g>
		<polygon class="st0" points="218.21,346.03 206.2,347.6 208.53,352.99 218.25,351.56 		"/>
		<path class="st8" d="M224.46,241.24l16.29,3.89c0,0-9-5.7-15.76-7.95C224.68,239.38,224.46,241.24,224.46,241.24z"/>
		<g>
			<g>
				<polygon class="st4" points="255.46,223.09 256.13,228.05 226.18,230.7 225.38,224.82 				"/>
				<polygon class="st1" points="255.46,223.09 256.13,228.05 226.18,230.7 225.38,224.82 				"/>
			</g>
			<polygon class="st0" points="247.47,231.22 245.99,231.4 245.22,222.75 246.7,222.58 			"/>
			<polygon class="st9" points="239.29,230.04 232.74,230.53 232.42,224.82 238.98,224.34 			"/>
			<polygon class="st0" points="229.13,232.16 227.65,232.33 226.87,223.69 228.35,223.51 			"/>
			<polygon class="st6" points="247.47,231.22 245.99,231.4 245.22,222.75 246.7,222.58 			"/>
			<polygon class="st6" points="229.13,232.16 227.65,232.33 226.87,223.69 228.35,223.51 			"/>
		</g>
		<path class="st0" d="M221.22,169.08c0,0,7.64,2.75,17.25,2.19c9.61-0.56,21.1,4.79,21.1,4.79l-4.13,47.03l-30.07,1.74
			C225.38,224.82,215.28,185.55,221.22,169.08z"/>
		<path class="st4" d="M226.06,142.51c0,0,1.69-22.84,18.34-14.54c20.9,10.42,4.28,38.24-5.93,32.52
			C228.27,154.78,226.06,142.51,226.06,142.51z"/>
		<path class="st1" d="M230.73,172.54l0.48,12.91l3.73-6.07c0,0-1.33,14.28-0.55,22.04c0,0,0.72-13.94,2.41-22.04l3.97,6.07
			l5.69-12.82C246.45,172.62,237.23,168.82,230.73,172.54z"/>
		<path class="st7" d="M235.88,174.94l8.61-2.79c-5.31-4.18-2.63-13.55-2.63-13.55l-8.53,3.43c0.45,1.62,0.74,3,0.92,4.18
			c0.89,6.1-1.52,6.59-1.52,6.59L235.88,174.94z"/>
		<path class="st1" d="M233.33,162.04c0.45,1.62,0.74,3,0.92,4.18c4.08-1.87,7.61-7.62,7.61-7.62L233.33,162.04z"/>
		<g>
			<path class="st7" d="M238.9,132.77c-7.55-1.91-10.88,2.1-13.16,10.89c-2.84,10.98-2.21,19.45,7.69,19.46
				C246.88,163.15,251.45,135.96,238.9,132.77z"/>
			<path class="st10" d="M230.72,144.42c0,0-1.48,2-2.9,3.04c0,0,0.42,1.34,1.81,1.49L230.72,144.42z"/>
			<g>
				<path class="st4" d="M235.48,144.87c-0.15,0.71,0.05,1.37,0.47,1.49c0.41,0.11,0.87-0.36,1.02-1.07
					c0.15-0.71-0.05-1.37-0.47-1.49C236.09,143.69,235.64,144.17,235.48,144.87z"/>
				<path class="st4" d="M236.66,143.89l-1.22-0.98C235.45,142.91,235.84,144.4,236.66,143.89z"/>
			</g>
			<g>
				<path class="st4" d="M227.84,142.56c-0.15,0.71,0.05,1.37,0.47,1.49c0.41,0.11,0.87-0.36,1.02-1.07
					c0.15-0.71-0.05-1.37-0.47-1.49C228.45,141.38,227.99,141.86,227.84,142.56z"/>
				<path class="st4" d="M229.02,141.57l-1.22-0.98C227.81,140.6,228.2,142.07,229.02,141.57z"/>
			</g>
			<path class="st11" d="M236.71,138.92c0,0,2.19,0.22,3.02,2.14"/>
			<path class="st11" d="M231.29,137.16c0,0-1.23-0.91-3.15-0.05"/>
			<path class="st4" d="M244.34,149.46c0,0-2.16-8.01-0.56-13.37c0,0-13.61-10.81-17.72,6.42c0,0,1.52-15.84,14.58-12.89
				c13.03,2.95,8.79,24.72,0.83,29.5C241.46,159.13,245.66,154.47,244.34,149.46z"/>
			<path class="st7" d="M242.75,150.98c0.32-1.38,2.03-3.42,4.24-2.57c2.29,0.88,2.33,6.68-3.74,6.53
				C242.37,154.92,242.08,153.87,242.75,150.98z"/>
			<g>
				<path class="st4" d="M228.28,152.22c0.26,1.14,0.39,3.22,0.39,3.22c0.16,0.02,0.34,0.04,0.5,0.05c2.25,0.22,3.37-0.53,3.91-1.44
					c0.3-0.49,0.42-1.04,0.47-1.49c0.06-0.52,0-0.91,0-0.91c-1.25,0.71-3.38,0.69-4.5,0.61
					C228.57,152.26,228.28,152.22,228.28,152.22z"/>
				<path class="st9" d="M229.05,152.28l0.14,0.95c2.12,0.2,3.65,0.02,4.37-0.66c0.06-0.52,0-0.91,0-0.91
					C232.3,152.37,230.18,152.35,229.05,152.28z"/>
				<path class="st10" d="M229.16,155.5c2.25,0.22,3.37-0.53,3.91-1.44c-0.77-0.04-1.71,0.01-2.55,0.32
					C229.89,154.63,229.46,155.05,229.16,155.5z"/>
			</g>
			<path class="st4" d="M238.93,133.47c0,0,0.29,15.03,8.15,16.83c7.86,1.8-0.74-19.31-0.74-19.31s-11.71-8.76-19.5-2.59
				c-7.81,6.18-0.79,14.12-0.79,14.12S227.7,131.35,238.93,133.47z"/>
			<path class="st12" d="M239.2,132.47c0,0-2.8,9.5,2.73,14.49"/>
		</g>
		<g>
			<path class="st0" d="M249.38,153.38c-1,3.06-3.57,4.78-5.74,3.84c-2.17-0.94-3.11-4.16-2.11-7.22c1-3.06,3.57-4.78,5.74-3.84
				C249.43,147.09,250.37,150.33,249.38,153.38z"/>
			<path class="st13" d="M249.38,153.38c-1,3.06-3.57,4.78-5.74,3.84c-2.17-0.94-3.11-4.16-2.11-7.22c1-3.06,3.57-4.78,5.74-3.84
				C249.43,147.09,250.37,150.33,249.38,153.38z"/>
			<path class="st0" d="M246.87,148.37c0,0,3.26-16.72-4.05-21.11c0,0,1.52,0.24,2.47,0.55s6.78,7.1,3.83,22.13L246.87,148.37z"/>
			<path class="st1" d="M246.87,148.37c0,0,3.26-16.72-4.05-21.11c0,0,1.52,0.24,2.47,0.55s6.78,7.1,3.83,22.13L246.87,148.37z"/>
			<g>
				<g>
					<path class="st0" d="M233.18,157.95c-0.18-0.03-0.36-0.06-0.54-0.09l0.15-1.03c6.58,1.23,11.47-2.76,11.52-2.8l0.54,0.84
						C244.63,155.03,239.86,158.96,233.18,157.95z"/>
				</g>
				<g class="st1">
					<path d="M233.18,157.95c-0.18-0.03-0.36-0.06-0.54-0.09l0.15-1.03c6.58,1.23,11.47-2.76,11.52-2.8l0.54,0.84
						C244.63,155.03,239.86,158.96,233.18,157.95z"/>
				</g>
			</g>
			<path class="st0" d="M249.07,152.96c-0.66,2.02-2.36,3.15-3.79,2.54c-1.43-0.61-2.06-2.76-1.4-4.78
				c0.66-2.02,2.36-3.15,3.79-2.54C249.1,148.81,249.73,150.94,249.07,152.96z"/>
			<g>
				<path class="st0" d="M232.37,158.29l-0.73-0.11c-0.54-0.08-0.93-0.65-0.85-1.27l0,0c0.07-0.62,0.56-1.06,1.11-0.98l0.73,0.11
					c0.54,0.08,0.93,0.65,0.85,1.27l0,0C233.4,157.92,232.9,158.36,232.37,158.29z"/>
				<path class="st13" d="M232.37,158.29l-0.73-0.11c-0.54-0.08-0.93-0.65-0.85-1.27l0,0c0.07-0.62,0.56-1.06,1.11-0.98l0.73,0.11
					c0.54,0.08,0.93,0.65,0.85,1.27l0,0C233.4,157.92,232.9,158.36,232.37,158.29z"/>
			</g>
		</g>
		<polygon class="st0" points="242.18,168.57 236.79,174.64 238.95,182.09 246.45,172.62 		"/>
		<polygon class="st0" points="234.38,169.84 235.25,174.51 232.47,181.12 230.73,172.54 		"/>
		<path class="st7" d="M241.03,173.84l3.13-13.14c0,0-1.52-3.28-1.19-3.95c0.33-0.69,1.96-9.51,3.12-10.47
			c1.16-0.96,5.94,0.68,6.43,1.57c0.48,0.9-4.57,12.85-4.57,12.85l-1.84,14.24L241.03,173.84z"/>
		<g>
			<path class="st0" d="M259.58,176.04c8.61,10.12-8.66,33.03-18.55,32.05c-9.89-0.98,0.25-42.52,0.25-42.52l6.33,1.2
				c0,0-2.22,17.98-1.52,19.39C246.79,187.58,256.68,172.65,259.58,176.04z"/>
			<path class="st1" d="M259.58,176.04c8.61,10.12-8.66,33.03-18.55,32.05c-9.89-0.98,0.25-42.52,0.25-42.52l6.33,1.2
				c0,0-2.22,17.98-1.52,19.39C246.79,187.58,256.68,172.65,259.58,176.04z"/>
			<polygon class="st0" points="240.75,164.24 239.82,167.68 248.65,168.57 248.65,165.57 			"/>
		</g>
		<g>
			<path class="st6" d="M227.38,200.8h-3.58c-0.4,0-0.72-0.36-0.72-0.82v-7.74c0-0.46,0.32-0.82,0.72-0.82h3.58
				c0.4,0,0.72,0.36,0.72,0.82v7.74C228.09,200.44,227.77,200.8,227.38,200.8z"/>
			<rect x="223.37" y="192.04" class="st1" width="4.07" height="6.38"/>
			<rect x="225.05" y="189.16" class="st4" width="0.9" height="3.76"/>
		</g>
		<path class="st0" d="M151.28,351.03c0.91-0.48,1.89-0.76,2.88-0.84l0,0c0,0,3.45-2.33,6.86-11.36l3.84-0.02
			c1.33,0.02,2.5,0.99,2.95,2.42c0.06,0.2,0.1,0.41,0.11,0.61c-0.04,1.06-0.14,2.12-0.3,3.17c-0.34,3.3-2.24,10.37-2.24,10.37
			l-0.65-0.19l1.18-6.58c0.39-2.24-1.65-0.07-2.6,2.18c-0.95,2.25-2.41,4.52-6.65,3.4C151.71,352.86,149.72,352.05,151.28,351.03z"
			/>
		<path class="st7" d="M161.71,336.46c0,0-4.8,11.51-7.56,13.74c0,0,3.7,2.53,7.56-3.1c4.98-7.29,6.21-5.26,6.21-5.26
			s-0.21-2.5-0.6-3.72C166.57,335.77,161.71,336.46,161.71,336.46z"/>
		<path class="st0" d="M204.12,378.46c0.78-0.71,1.67-1.25,2.62-1.6l0,0c0,0,2.87-3.2,4.32-12.91l3.73-1.07
			c1.3-0.34,2.64,0.27,3.37,1.55c0.1,0.18,0.18,0.36,0.24,0.56c0.18,1.04,0.31,2.1,0.37,3.16c0.34,3.3-0.04,10.68-0.04,10.68
			l-0.67-0.01l-0.21-6.71c-0.08-2.28-1.62,0.37-2.08,2.82c-0.45,2.45-1.4,5.05-5.75,5.12C204.92,380.12,202.82,379.87,204.12,378.46
			z"/>
		<path class="st7" d="M211.24,361.46c0,0-2.28,12.49-4.5,15.39c0,0,4.12,1.46,6.7-5.07c3.34-8.44,4.95-6.79,4.95-6.79
			s-0.72-2.36-1.35-3.44C215.81,359.47,211.24,361.46,211.24,361.46z"/>
	</g>
</g>
<g id="Speech_bubble">
	<g>
		<path class="st0" d="M295.63,135.65h-31.69c-2.54,0-4.6-2.36-4.6-5.28v-15.55c0-2.91,2.06-5.28,4.6-5.28h31.69
			c2.54,0,4.6,2.36,4.6,5.28v15.55C300.23,133.29,298.17,135.65,295.63,135.65z"/>
		<polygon class="st0" points="270.3,132.68 260.75,147.56 276.15,133.68 		"/>
		<g>
			<path class="st9" d="M270.65,122.6c0,0.84-0.6,1.54-1.34,1.54c-0.74,0-1.34-0.69-1.34-1.54c0-0.84,0.6-1.54,1.34-1.54
				C270.05,121.07,270.65,121.76,270.65,122.6z"/>
			<path class="st9" d="M277.63,122.6c0,0.84-0.6,1.54-1.34,1.54s-1.34-0.69-1.34-1.54c0-0.84,0.6-1.54,1.34-1.54
				S277.63,121.76,277.63,122.6z"/>
			<path class="st9" d="M284.61,122.6c0,0.84-0.6,1.54-1.34,1.54c-0.74,0-1.34-0.69-1.34-1.54c0-0.84,0.6-1.54,1.34-1.54
				C284.01,121.07,284.61,121.76,284.61,122.6z"/>
			<path class="st9" d="M291.59,122.6c0,0.84-0.6,1.54-1.34,1.54c-0.74,0-1.34-0.69-1.34-1.54c0-0.84,0.6-1.54,1.34-1.54
				C290.99,121.07,291.59,121.76,291.59,122.6z"/>
		</g>
	</g>
</g>
<g id="Bird">
	<g>
		<g>
			<path class="st0" d="M168.27,115.13l-22.6-13.96c-0.61-0.37-0.84-1.25-0.51-1.96l7.21-15.34c0.33-0.7,1.09-0.97,1.71-0.58
				l22.6,13.96c0.61,0.37,0.84,1.25,0.51,1.96l-7.21,15.34C169.64,115.25,168.87,115.52,168.27,115.13z"/>
			<path class="st14" d="M168.27,115.13l-22.6-13.96c-0.61-0.37-0.84-1.25-0.51-1.96l7.21-15.34c0.33-0.7,1.09-0.97,1.71-0.58
				l22.6,13.96c0.61,0.37,0.84,1.25,0.51,1.96l-7.21,15.34C169.64,115.25,168.87,115.52,168.27,115.13z"/>
			<path class="st1" d="M151.77,85.15l7.07,15.14c0.55,1.18,1.67,1.86,2.82,1.73l14.71-1.67l-14.98,2.53
				c-1.34,0.23-2.66-0.58-3.23-2L151.77,85.15z"/>
		</g>
		<g>
			<path class="st0" d="M134.6,82.33c0.24-5.79,3.98-17.45,8.52-21.02c4.55-3.57,1.55,1.37,1.55,1.37s4.31-4.81,6.58-4.66
				c2.28,0.14,0,3.15,0,3.15s4.66-3.3,6.83-3.16c2.15,0.14,0,3.02,0,3.02s3.83-3.15,5.38-1.64c1.55,1.51-19.87,17.7-22.26,24.29
				C138.82,90.26,134.36,88.19,134.6,82.33z"/>
			<path class="st15" d="M134.6,82.33c0.24-5.79,3.98-17.45,8.52-21.02c4.55-3.57,1.55,1.37,1.55,1.37s4.31-4.81,6.58-4.66
				c2.28,0.14,0,3.15,0,3.15s4.66-3.3,6.83-3.16c2.15,0.14,0,3.02,0,3.02s3.83-3.15,5.38-1.64c1.55,1.51-19.87,17.7-22.26,24.29
				C138.82,90.26,134.36,88.19,134.6,82.33z"/>
		</g>
		<g>
			<path class="st0" d="M153.01,81.47l2.86,2.1c0.21,0.16,0.1,0.52-0.15,0.5l-3-0.27l0.25,2.64c0.03,0.29-0.28,0.45-0.45,0.23
				l-1.73-2.25L153.01,81.47z"/>
			<path class="st5" d="M153.01,81.47l2.86,2.1c0.21,0.16,0.1,0.52-0.15,0.5l-3-0.27l0.25,2.64c0.03,0.29-0.28,0.45-0.45,0.23
				l-1.73-2.25L153.01,81.47z"/>
		</g>
		<g>
			<path class="st0" d="M112.85,68.44c0,0,3.95-3.15,9.94-1.1c0,0,1.72,9.05,6.43,12.07c2.59,1.65,8.91,1.52,13.92-0.34
				c5.94-2.21,8.86-2.21,9.94,0.34c1.02,2.41-0.12,5.21-4.66,6.45c-4.55,1.24-8.14,10.29-16.4,10.43
				c-8.26,0.14-12.61-9.36-10.53-17.7C121.47,78.6,118.96,72.38,112.85,68.44z"/>
			<path class="st2" d="M112.85,68.44c0,0,3.95-3.15,9.94-1.1c0,0,1.72,9.05,6.43,12.07c2.59,1.65,8.91,1.52,13.92-0.34
				c5.94-2.21,8.86-2.21,9.94,0.34c1.02,2.41-0.12,5.21-4.66,6.45c-4.55,1.24-8.14,10.29-16.4,10.43
				c-8.26,0.14-12.61-9.36-10.53-17.7C121.47,78.6,118.96,72.38,112.85,68.44z"/>
		</g>
		<path class="st4" d="M150.79,81.14c0,0.26-0.18,0.46-0.4,0.46c-0.23,0-0.41-0.21-0.41-0.46c0-0.26,0.18-0.47,0.41-0.47
			C150.61,80.67,150.79,80.88,150.79,81.14z"/>
		<path class="st0" d="M130.08,88.76c-4.87,1.53-15.71,1.05-20.08-2.81c-4.37-3.86,0.66-2.12,0.66-2.12s-5.32-3.22-5.9-5.73
			c-0.59-2.52,2.61-0.98,2.61-0.98s-4.17-4.07-4.73-6.46c-0.54-2.39,2.5-0.94,2.5-0.94s-3.8-3.21-3.03-5.37
			c0.77-2.16,20.82,16.2,27.02,16.79C135.37,81.71,135.02,87.22,130.08,88.76z"/>
		<path class="st15" d="M130.08,88.76c-4.87,1.53-15.71,1.05-20.08-2.81c-4.37-3.86,0.66-2.12,0.66-2.12s-5.32-3.22-5.9-5.73
			c-0.59-2.52,2.61-0.98,2.61-0.98s-4.17-4.07-4.73-6.46c-0.54-2.39,2.5-0.94,2.5-0.94s-3.8-3.21-3.03-5.37
			c0.77-2.16,20.82,16.2,27.02,16.79C135.37,81.71,135.02,87.22,130.08,88.76z"/>
		<g>
			<g>
				<path class="st16" d="M98.14,63.05c-0.85-0.34-1.72-0.68-2.59-0.98"/>
				<path class="st17" d="M90.25,60.52c-3.18-0.76-6.42-1.26-9.63-1.52c-8.82-0.71-22.66-1.71-28.06,8.38
					c-4.93,9.19,3.55,24.86,6.55,33.4c3.68,10.45,8.07,23.36,3.71,34.43c-8.95,22.73-47.24,10.93-60.15-10.01"/>
				<path class="st16" d="M1.21,122.56c-0.45-0.92-0.86-1.85-1.21-2.8"/>
			</g>
		</g>
	</g>
</g>
<g id="Desk">
	<g>
		<g>
			<rect x="76.98" y="205.2" class="st9" width="34.45" height="8.1"/>
			<rect x="76.98" y="205.2" class="st8" width="34.45" height="8.1"/>
			<rect x="76.98" y="205.2" class="st8" width="14.51" height="8.1"/>
			<polygon class="st8" points="76.98,206.36 107.65,206.36 76.98,207.36 			"/>
			<polygon class="st8" points="111.43,207.77 84.85,208.53 111.43,208.53 			"/>
			<polygon class="st8" points="78.39,210.03 91.49,209.42 110.76,210.03 91.49,210.38 			"/>
			<polygon class="st8" points="76.98,211.75 99.69,211.75 76.98,212.37 			"/>
			<polygon class="st8" points="111.38,212.37 96.22,212.69 111.43,212.69 			"/>
		</g>
		<g>
			<rect x="72.19" y="197.1" class="st9" width="34.45" height="8.1"/>
			<rect x="72.19" y="197.1" class="st8" width="34.45" height="8.1"/>
			<rect x="72.19" y="197.1" class="st8" width="14.51" height="8.1"/>
			<polygon class="st8" points="72.19,198.26 102.86,198.26 72.19,199.25 			"/>
			<polygon class="st8" points="106.64,199.67 80.06,200.43 106.64,200.43 			"/>
			<polygon class="st8" points="73.59,201.94 86.69,201.31 105.96,201.94 86.69,202.28 			"/>
			<polygon class="st8" points="72.19,203.64 94.9,203.64 72.19,204.27 			"/>
			<polygon class="st8" points="106.59,204.27 91.42,204.59 106.64,204.59 			"/>
		</g>
		<g>
			<rect x="76.12" y="188.99" class="st9" width="34.45" height="8.1"/>
			<rect x="76.12" y="188.99" class="st8" width="34.45" height="8.1"/>
			<rect x="76.12" y="188.99" class="st8" width="14.51" height="8.1"/>
			<polygon class="st8" points="76.12,190.16 106.79,190.16 76.12,191.16 			"/>
			<polygon class="st8" points="110.57,191.56 83.99,192.32 110.57,192.32 			"/>
			<polygon class="st8" points="77.53,193.83 90.63,193.22 109.9,193.83 90.63,194.17 			"/>
			<polygon class="st8" points="76.12,195.55 98.83,195.55 76.12,196.16 			"/>
			<polygon class="st8" points="110.53,196.16 95.36,196.48 110.57,196.48 			"/>
		</g>
		<g>
			<polygon class="st4" points="133.52,213.13 134.41,209.24 171.22,209.24 188.17,211.19 188.81,213.13 			"/>
			<polygon class="st13" points="171.22,209.24 171.22,213.13 133.52,213.13 134.41,209.24 			"/>
		</g>
		<g>
			<path class="st4" d="M163.83,190.67c0.16,2.05-1.14,3.72-2.92,3.72h-56.38c-1.79,0-3.37-1.67-3.53-3.72l-3.35-41.39
				c-0.04-0.43-0.01-0.83,0.07-1.21c0.32-1.46,1.43-2.51,2.85-2.51h56.38c1.79,0,3.37,1.67,3.53,3.72L163.83,190.67z"/>
			<path class="st13" d="M160.71,194.38h-56.18c-1.79,0-3.37-1.67-3.53-3.72l-3.35-41.39c-0.04-0.43-0.01-0.83,0.07-1.21h56.18
				c1.78,0,3.36,1.67,3.53,3.72l3.35,41.39C160.81,193.6,160.79,194.01,160.71,194.38z"/>
			<polygon class="st4" points="121.97,169 133.63,169 130.53,207.29 148.97,210.46 148.97,213.13 110.13,213.13 110.13,210.46 
				118.09,207.29 			"/>
			<polygon class="st18" points="133.63,169 124.99,212.52 118.09,212.28 121.97,169 			"/>
		</g>
		<g>
			<g>
				<polygon class="st4" points="133.58,380.07 128.02,380.07 118.03,220.59 125.41,220.59 				"/>
				<polygon class="st15" points="133.59,380.07 128.02,380.07 118.52,228.51 118.03,220.84 125.41,220.84 125.81,228.51 				"/>
				<polygon class="st1" points="125.81,228.12 118.52,228.12 118.03,220.84 125.41,220.84 				"/>
			</g>
			<g>
				<polygon class="st4" points="174.38,380.07 168.83,380.07 167.92,220.59 175.29,220.59 				"/>
				<polygon class="st2" points="175.3,220.84 175.15,246.57 174.39,380.07 168.83,380.07 168.07,246.57 167.92,220.84 				"/>
				<polygon class="st1" points="175.3,220.84 175.15,246.86 168.07,246.86 167.92,220.84 				"/>
			</g>
			<g>
				<polygon class="st4" points="233.41,380.07 227.86,380.07 217.87,220.59 225.24,220.59 				"/>
				<polygon class="st2" points="233.42,380.07 227.86,380.07 218.36,228.51 217.87,220.84 225.24,220.84 225.64,228.51 				"/>
				<polygon class="st1" points="225.64,228.12 218.36,228.12 217.87,220.84 225.24,220.84 				"/>
			</g>
			<g>
				<polygon class="st4" points="69.97,380.07 64.42,380.07 72.59,220.59 79.97,220.59 				"/>
				<polygon class="st2" points="79.97,220.84 79.48,228.51 69.97,380.07 64.42,380.07 72.19,228.51 72.59,220.84 				"/>
				<polygon class="st1" points="72.59,220.84 79.97,220.84 79.48,228.12 72.19,228.12 				"/>
			</g>
			<g>
				<path class="st0" d="M229.13,224.57H68.7c-1.08,0-1.96-1.01-1.96-2.25v-5.73h164.35v5.73
					C231.09,223.56,230.21,224.57,229.13,224.57z"/>
				<path class="st6" d="M229.13,224.57H68.7c-1.08,0-1.96-1.01-1.96-2.25v-5.73h164.35v5.73
					C231.09,223.56,230.21,224.57,229.13,224.57z"/>
			</g>
			<rect x="66.74" y="216.59" class="st1" width="164.35" height="4"/>
			<g>
				<path class="st0" d="M234.54,217.63H63.29c-1.08,0-1.96-1.01-1.96-2.25l0,0c0-1.24,0.88-2.25,1.96-2.25h171.24
					c1.08,0,1.96,1.01,1.96,2.25l0,0C236.5,216.62,235.62,217.63,234.54,217.63z"/>
				<path class="st6" d="M234.54,217.63H63.29c-1.08,0-1.96-1.01-1.96-2.25l0,0c0-1.24,0.88-2.25,1.96-2.25h171.24
					c1.08,0,1.96,1.01,1.96,2.25l0,0C236.5,216.62,235.62,217.63,234.54,217.63z"/>
			</g>
		</g>
		<g>
			<path class="st0" d="M194.02,206.19l2.11-3.62c0.42-0.72,1.13-1.16,1.89-1.16h2.67c0.23,0,0.44,0.04,0.65,0.11l9.52,3.31
				c0.54,0.19,1,0.6,1.29,1.16l1.36,2.63L194.02,206.19z"/>
			<path class="st1" d="M213.52,208.63l-13.86-1.73l-5.64-0.71l2.11-3.62c0.42-0.72,1.13-1.16,1.89-1.16h2.67
				c0.23,0,0.44,0.04,0.66,0.11l0.21,0.07l9.3,3.24c0.54,0.19,1.01,0.59,1.3,1.16L213.52,208.63z"/>
			<path class="st1" d="M213.52,208.63l-13.86-1.73l1.9-5.3l9.3,3.24c0.54,0.19,1.01,0.59,1.3,1.16L213.52,208.63z"/>
			<path class="st0" d="M220.11,212.78v0.34h-12.08h-17.34l1.09-4.88c0.43-1.83,1.88-3.11,3.53-3.11h13.05
				c0.44,0,0.86,0.08,1.27,0.26l1.63,0.7l6.48,2.77C219.16,209.47,220.11,211.03,220.11,212.78z"/>
			<path class="st1" d="M220.11,212.78v0.34h-12.08l0,0l0.64-5.28c0.17-1.39,1.43-2.25,2.59-1.76l6.48,2.77
				C219.16,209.47,220.11,211.03,220.11,212.78z"/>
			<path class="st4" d="M209.91,209.55l3.84-13.23c0.16-0.57,0.74-0.83,1.21-0.56l0,0c0.35,0.21,0.54,0.68,0.44,1.12L212.15,211
				C212.15,210.99,210,211.99,209.91,209.55z"/>
			<polygon class="st1" points="194.02,212.03 192.32,212.03 192.64,210.11 194.35,210.11 			"/>
			<polygon class="st1" points="196.56,211.96 194.86,211.96 195.18,210.03 196.89,210.03 			"/>
		</g>
	</g>
</g>
</svg>
