<?xml version="1.0" encoding="utf-8"?>
<!-- Generator: Adobe Illustrator 23.0.1, SVG Export Plug-In . SVG Version: 6.00 Build 0)  -->
<svg version="1.1" id="Layer_1" xmlns="http://www.w3.org/2000/svg" xmlns:xlink="http://www.w3.org/1999/xlink" x="0px" y="0px"
	 viewBox="0 0 24 24" style="enable-background:new 0 0 24 24;" xml:space="preserve">
<style type="text/css">
	.st0{fill:none;}
	.st1{fill-rule:evenodd;clip-rule:evenodd;fill:url(#Instagram_2_);}
</style>
<g id="_x37__stroke">
	<g id="Instagram_1_">
		<rect class="st0" width="24" height="24"/>
		
			<radialGradient id="Instagram_2_" cx="3.5833" cy="1.9167" r="30.666" gradientTransform="matrix(1 0 0 -1 0 26)" gradientUnits="userSpaceOnUse">
			<stop  offset="0" style="stop-color:#FFB140"/>
			<stop  offset="0.2559" style="stop-color:#FF5445"/>
			<stop  offset="0.599" style="stop-color:#FC2B82"/>
			<stop  offset="1" style="stop-color:#8E40B7"/>
		</radialGradient>
		<path id="Instagram" class="st1" d="M19.85,5.59c0,0.8-0.64,1.44-1.44,1.44s-1.44-0.64-1.44-1.44s0.64-1.44,1.44-1.44
			C19.2,4.15,19.85,4.8,19.85,5.59z M12,16c-2.21,0-4-1.79-4-4s1.79-4,4-4s4,1.79,4,4S14.21,16,12,16z M12,5.84
			C8.6,5.84,5.84,8.6,5.84,12S8.6,18.16,12,18.16s6.16-2.76,6.16-6.16C18.16,8.6,15.4,5.84,12,5.84z M12,2.16
			c3.2,0,3.58,0.01,4.85,0.07c1.17,0.05,1.81,0.25,2.23,0.41c0.56,0.22,0.96,0.48,1.38,0.9c0.42,0.42,0.68,0.82,0.9,1.38
			c0.16,0.42,0.36,1.06,0.41,2.23c0.06,1.27,0.07,1.64,0.07,4.85s-0.01,3.58-0.07,4.85c-0.05,1.17-0.25,1.81-0.41,2.23
			c-0.22,0.56-0.48,0.96-0.9,1.38c-0.42,0.42-0.82,0.68-1.38,0.9c-0.42,0.16-1.06,0.36-2.23,0.41c-1.27,0.06-1.64,0.07-4.85,0.07
			c-3.2,0-3.58-0.01-4.85-0.07c-1.17-0.05-1.81-0.25-2.23-0.41c-0.56-0.22-0.96-0.48-1.38-0.9c-0.42-0.42-0.68-0.82-0.9-1.38
			c-0.16-0.42-0.36-1.06-0.41-2.23C2.17,15.58,2.16,15.2,2.16,12c0-3.2,0.01-3.58,0.07-4.85c0.05-1.17,0.25-1.81,0.41-2.23
			c0.22-0.56,0.48-0.96,0.9-1.38c0.42-0.42,0.82-0.68,1.38-0.9c0.42-0.16,1.06-0.36,2.23-0.41C8.42,2.17,8.8,2.16,12,2.16z M12,0
			C8.74,0,8.33,0.01,7.05,0.07C5.78,0.13,4.9,0.33,4.14,0.63C3.35,0.94,2.68,1.35,2.01,2.01S0.94,3.35,0.63,4.14
			c-0.3,0.76-0.5,1.64-0.56,2.91C0.01,8.33,0,8.74,0,12s0.01,3.67,0.07,4.95c0.06,1.28,0.26,2.15,0.56,2.91
			c0.31,0.79,0.72,1.46,1.38,2.13s1.34,1.08,2.13,1.38c0.76,0.3,1.64,0.5,2.91,0.56C8.33,23.99,8.74,24,12,24s3.67-0.01,4.95-0.07
			c1.28-0.06,2.15-0.26,2.91-0.56c0.79-0.31,1.46-0.72,2.13-1.38s1.08-1.34,1.38-2.13c0.3-0.76,0.5-1.64,0.56-2.91
			C23.99,15.67,24,15.26,24,12s-0.01-3.67-0.07-4.95c-0.06-1.28-0.26-2.15-0.56-2.91c-0.31-0.79-0.72-1.46-1.38-2.13
			s-1.34-1.08-2.13-1.38c-0.76-0.3-1.64-0.5-2.91-0.56C15.67,0.01,15.26,0,12,0z"/>
	</g>
</g>
</svg>
