<?xml version="1.0" encoding="utf-8"?>
<!-- Generator: Adobe Illustrator 23.0.1, SVG Export Plug-In . SVG Version: 6.00 Build 0)  -->
<svg version="1.1" id="Layer_1" xmlns="http://www.w3.org/2000/svg" xmlns:xlink="http://www.w3.org/1999/xlink" x="0px" y="0px"
	 viewBox="0 0 500 450" style="enable-background:new 0 0 500 450;" xml:space="preserve">
<style type="text/css">
	.st0{fill:#6C63FF;}
	.st1{fill:#F2F2F2;}
	.st2{fill:#3F3D56;}
	.st3{fill:#2F2E41;}
	.st4{fill:#FFB8B8;}
	.st5{fill:#D0CDE1;}
</style>
<path class="st0" d="M431.24,259.63c0,60.37-32.67,113.78-82.74,146.29c-32.11,20.85-71.37,33.11-113.77,33.11
	c-56.48,0-99.57-23.13-131.98-58.56c-29.87-32.65-50.67-75.76-64.53-120.84C-23.67,58.35,79.69,3.43,234.72,80.23
	C333.43,129.13,431.24,160.55,431.24,259.63z"/>
<g>
	<path class="st1" d="M348.5,154.26V406.4c-32.11,20.85-71.37,33.11-113.77,33.11c-56.48,0-99.57-23.13-131.98-58.56V154.26
		L348.5,154.26z"/>
</g>
<path class="st2" d="M126.38,277.11c12.87-4.43,26.22-7.01,39.71-7.67c6.76-0.31,13.53-0.02,20.25,0.86
	c6.65,0.95,13.22,2.48,19.65,4.56c6.35,1.99,12.61,4.29,18.94,6.36c6.43,2.13,12.97,3.86,19.58,5.18
	c6.58,1.29,13.22,2.15,19.89,2.57c6.61,0.42,13.28,0.5,19.87-0.27c6.15-0.64,12.18-2.3,17.88-4.91c5.31-2.51,10.22-5.92,14.54-10.1
	c1.08-1.04,2.12-2.13,3.11-3.27c0.59-0.67-0.35-1.68-0.93-1.01c-8.42,9.54-19.49,15.46-31.5,17.43c-6.54,1.08-13.21,1.14-19.81,0.86
	c-6.75-0.28-13.47-1.02-20.13-2.2c-6.58-1.18-13.09-2.79-19.5-4.81c-6.29-1.98-12.5-4.25-18.77-6.31
	c-6.33-2.15-12.78-3.82-19.33-4.99c-6.56-1.08-13.19-1.58-19.83-1.49c-13.26,0.23-26.43,2.34-39.19,6.29c-1.6,0.49-3.2,1-4.78,1.54
	C125.22,276.01,125.56,277.39,126.38,277.11L126.38,277.11z"/>
<path class="st2" d="M126.38,313.38c12.87-4.43,26.22-7.01,39.71-7.67c6.76-0.31,13.53-0.02,20.25,0.86
	c6.65,0.95,13.22,2.48,19.65,4.56c6.35,1.99,12.61,4.29,18.94,6.36c6.43,2.13,12.97,3.86,19.58,5.18
	c6.58,1.29,13.22,2.15,19.89,2.57c6.61,0.42,13.28,0.5,19.87-0.27c6.15-0.64,12.18-2.3,17.88-4.91c5.31-2.51,10.22-5.92,14.54-10.1
	c1.08-1.04,2.12-2.13,3.11-3.27c0.59-0.67-0.35-1.68-0.93-1.01c-8.42,9.54-19.49,15.46-31.5,17.43c-6.54,1.08-13.21,1.14-19.81,0.86
	c-6.75-0.28-13.47-1.02-20.13-2.2c-6.58-1.18-13.09-2.79-19.5-4.81c-6.29-1.98-12.5-4.25-18.77-6.31
	c-6.33-2.15-12.78-3.82-19.33-4.99c-6.56-1.08-13.19-1.58-19.83-1.49c-13.26,0.23-26.43,2.34-39.19,6.29c-1.6,0.49-3.2,1-4.78,1.54
	C125.22,312.28,125.56,313.66,126.38,313.38L126.38,313.38z"/>
<path class="st2" d="M126.38,244.19c12.87-4.43,26.22-7.01,39.71-7.67c6.76-0.31,13.53-0.02,20.25,0.86
	c6.65,0.95,13.22,2.48,19.65,4.56c6.35,1.99,12.61,4.29,18.94,6.36c6.43,2.13,12.97,3.86,19.58,5.18
	c6.58,1.29,13.22,2.15,19.89,2.57c6.61,0.42,13.28,0.5,19.87-0.27c6.15-0.64,12.18-2.3,17.88-4.91c5.31-2.51,10.22-5.92,14.54-10.1
	c1.08-1.04,2.12-2.13,3.11-3.27c0.59-0.67-0.35-1.68-0.93-1.01c-8.42,9.54-19.49,15.46-31.5,17.43c-6.54,1.08-13.21,1.14-19.81,0.86
	c-6.75-0.28-13.47-1.02-20.13-2.2c-6.58-1.18-13.09-2.79-19.5-4.81c-6.29-1.98-12.5-4.25-18.77-6.31
	c-6.33-2.15-12.78-3.82-19.33-4.99c-6.56-1.08-13.19-1.58-19.83-1.49c-13.26,0.23-26.43,2.34-39.19,6.29c-1.6,0.49-3.2,1-4.78,1.54
	C125.22,243.08,125.56,244.46,126.38,244.19L126.38,244.19z"/>
<path class="st2" d="M124.8,181.93c3.2-1.53,6.86-1.27,10.18-0.38c3.58,0.96,6.95,2.63,10.47,3.78c6.3,2.03,13,2.17,19.37,0.4
	c3.59-0.99,7.01-2.58,10.14-4.71c0.72-0.49,0.06-1.73-0.67-1.24c-5.59,3.78-12.05,5.78-18.64,5.76c-3.3-0.01-6.59-0.53-9.76-1.56
	c-3.5-1.14-6.84-2.78-10.38-3.76c-3.75-1.04-7.78-1.26-11.38,0.47C123.36,181.07,124.03,182.3,124.8,181.93L124.8,181.93z"/>
<ellipse class="st2" cx="222.98" cy="379.5" rx="20.26" ry="21.95"/>
<ellipse class="st1" cx="113.75" cy="97.47" rx="11.01" ry="11.93"/>
<ellipse class="st1" cx="210.2" cy="131.35" rx="7.49" ry="8.11"/>
<ellipse class="st1" cx="88.65" cy="209.13" rx="7.49" ry="8.11"/>
<rect x="57.68" y="148.87" class="st2" width="0.83" height="159.98"/>
<ellipse class="st2" cx="58.25" cy="255.33" rx="16.1" ry="39.81"/>
<ellipse class="st2" cx="58.25" cy="164.52" rx="16.1" ry="39.81"/>
<path class="st2" d="M58.64,132l-0.79-0.26c0.05-0.18,4.9-18.2-3.07-29.81c-4.5-6.55-12.23-9.88-22.96-9.88v-0.89
	c11.01,0,18.96,3.45,23.62,10.24C63.67,113.37,58.7,131.81,58.64,132z"/>
<ellipse class="st2" cx="31.83" cy="91.61" rx="10.32" ry="11.18"/>
<path class="st3" d="M359.45,345.1l-7.72,76.97h53.28l2.32-5.86l3.09,5.86h50.19c0,0-3.86-79.48-10.81-81.99
	C442.84,337.57,359.45,345.1,359.45,345.1z"/>
<ellipse class="st4" cx="405.01" cy="146.81" rx="27.03" ry="29.28"/>
<path class="st4" d="M389.56,165.22c0,0,2.32,26.77,0,28.45c-2.32,1.67,37.06,0.84,37.06,0.84s-5.41-24.26,0-35.98L389.56,165.22z"
	/>
<path class="st5" d="M403.46,187.81c0,0,19.87,3.35,21.52-3.34l10.14,15.06l0.77,150.6c0,0-82.62,10.88-85.71-6.69
	c-3.09-17.57,31.66-156.46,31.66-156.46l8.75-0.61C390.59,186.36,401.92,187.81,403.46,187.81z"/>
<path class="st2" d="M390.46,179.49l-13.25,4.97l-37.84,10.04l1.54,100.4c0,0-32.43,100.4-17.76,107.93
	c14.67,7.53,35.52-10.04,41.7-22.59c6.18-12.55,27.8-186.58,27.8-189.92C392.65,186.97,390.46,179.49,390.46,179.49z"/>
<path class="st2" d="M424.48,179.49l5.23,4.97l37.06,18.41L448.25,304.1c0,0,24.71,92.03,15.44,97.05
	c-9.27,5.02-23.17,19.24-26.25,10.88C434.35,403.67,416.16,188.74,424.48,179.49z"/>
<path class="st4" d="M445.93,313.31c0,0-34.75-15.9-35.52-1.67c-0.77,14.22,39.38,24.26,39.38,20.08
	C449.79,327.53,445.93,313.31,445.93,313.31z"/>
<path class="st4" d="M360.99,307.45c0,0,40.15,32.63,24.71,41c-15.44,8.37-35.52-29.28-35.52-29.28L360.99,307.45z"/>
<path class="st3" d="M417.01,103.92c0.26-0.6,0.83-0.96,1.43-0.92c-12.37-0.8-25.41,0.76-35.76,8.15c-2.9,2.07-5.61,4.6-8.91,5.77
	l2.68,2.28l-3.2,1.06l4.71,3.3c-0.97,1.19-2.45,1.73-3.89,1.41c2.05,0.65,3.55,2.62,4.32,4.78c0.77,2.16,0.9,4.51,1.03,6.81
	c0.79-3.33,4.14-5.29,7.31-5.49c3.17-0.2,6.25,0.93,9.34,1.75c6.71,1.77,13.68,2.06,20.5,0.85c-2.32,5.03-0.36,11.04,1.6,16.24
	l3.92,10.39c2.18,0.24,3.72-2.11,5.36-3.68c1.5-1.43-4.46,11.16-3.54,10.69c1.2-0.6,13.84-15.72,14.43-17
	c2.7-5.83,4.32-12.33,4.08-18.85c-0.24-6.52-2.44-13.04-6.59-17.77c-2.81-3.21-6.71-3.77-9.58-6.44c-1.13-1.05-1.13-1.87-2.69-2.48
	C423.07,104.57,417.09,103.71,417.01,103.92z"/>
<path class="st2" d="M344.78,197.01l-5.41-2.51l-43.24,76.97c0,0-7.72,20.08,6.18,29.28c13.9,9.2,46.33,36.81,46.33,36.81
	l18.53-30.96c0,0-37.84-19.24-35.52-26.77c2.32-7.53,14.67-27.61,14.67-27.61L344.78,197.01z"/>
<path class="st2" d="M456.74,201.19l10.04,1.67c0,0,41.7,88.69,31.66,105.42c-10.04,16.73-50.96,40.16-50.96,40.16
	s-0.77-27.61-7.72-37.65l23.94-10.04l-13.13-55.22L456.74,201.19z"/>
</svg>
